
      <svg data-logo="logo" xmlns="http://www.w3.org/2000/svg" viewBox="0 0 227 42">
        <g id="logogram" transform="translate(0, 1) rotate(0) "><path d="M43 31L31 40H5L7 35L12 31H29L32 35L40 11L45 7H50L43 31ZM43 5L38 9H21L18 5L10 29L5 33H0L7 9L19 0H45L43 5ZM24 13H35L29 31L26 27H15L21 9L24 13Z" fill="#297AFF"/></g>
        <g id="logotype" transform="translate(56, 5.5)"><path fill="#111111" d="M21.86 25.48L17.88 20.25L22.34 20.25L24.70 23.27L26.80 25.74L31.05 31.12L26.18 31.12L23.28 27.50L21.86 25.48ZM19.48 29.34L19.48 29.34Q16.12 29.34 13.43 27.80Q10.73 26.27 9.17 23.34Q7.61 20.42 7.61 16.29L7.61 16.29Q7.61 12.13 9.17 9.20Q10.73 6.27 13.43 4.73Q16.12 3.19 19.48 3.19L19.48 3.19Q22.87 3.19 25.55 4.73Q28.23 6.27 29.80 9.20Q31.36 12.13 31.36 16.29L31.36 16.29Q31.36 20.42 29.80 23.34Q28.23 26.27 25.55 27.80Q22.87 29.34 19.48 29.34ZM19.48 24.71L19.48 24.71Q21.47 24.71 22.94 23.74Q24.42 22.78 25.24 20.89Q26.06 19.00 26.06 16.29L26.06 16.29Q26.06 13.53 25.24 11.65Q24.42 9.76 22.94 8.79Q21.47 7.83 19.48 7.83L19.48 7.83Q17.52 7.83 16.03 8.80Q14.54 9.77 13.72 11.66Q12.90 13.55 12.90 16.29L12.90 16.29Q12.90 19.00 13.72 20.88Q14.54 22.76 16.03 23.74Q17.52 24.71 19.48 24.71ZM39.68 29.24L39.68 29.24Q37.70 29.24 36.21 28.38Q34.73 27.51 33.91 25.90Q33.10 24.28 33.10 22.04L33.10 22.04L33.10 9.89L38.23 9.89L38.23 21.16Q38.23 22.93 39.15 23.94Q40.08 24.95 41.68 24.95L41.68 24.95Q42.78 24.95 43.61 24.48Q44.45 24.01 44.92 23.11Q45.39 22.22 45.39 20.95L45.39 20.95L45.39 9.89L50.52 9.89L50.52 29L45.68 29L45.61 24.23L45.90 24.23Q45.15 26.64 43.60 27.94Q42.06 29.24 39.68 29.24ZM57.74 29L52.62 29L52.62 9.89L57.74 9.89L57.74 29ZM55.18 7.40L55.18 7.40Q54.02 7.40 53.20 6.63Q52.38 5.86 52.38 4.77L52.38 4.77Q52.38 3.67 53.20 2.90Q54.02 2.13 55.18 2.13L55.18 2.13Q56.34 2.13 57.17 2.90Q58.00 3.66 58.00 4.77L58.00 4.77Q58.00 5.86 57.17 6.63Q56.34 7.40 55.18 7.40ZM68.37 29.38L68.37 29.38Q65.48 29.38 63.39 28.14Q61.30 26.90 60.16 24.68Q59.02 22.47 59.02 19.53L59.02 19.53Q59.02 16.56 60.16 14.35Q61.30 12.13 63.39 10.89Q65.48 9.65 68.37 9.65L68.37 9.65Q70.06 9.65 71.50 10.10Q72.93 10.54 74.05 11.36Q75.16 12.18 75.87 13.36Q76.59 14.54 76.87 16.01L76.87 16.01L72.10 16.90Q71.94 16.15 71.62 15.56Q71.29 14.97 70.83 14.55Q70.37 14.13 69.76 13.91Q69.16 13.69 68.42 13.69L68.42 13.69Q67.06 13.69 66.12 14.42Q65.19 15.16 64.72 16.47Q64.25 17.79 64.25 19.52L64.25 19.52Q64.25 21.22 64.72 22.53Q65.19 23.84 66.12 24.59Q67.06 25.34 68.42 25.34L68.42 25.34Q69.16 25.34 69.77 25.11Q70.39 24.88 70.87 24.45Q71.35 24.01 71.67 23.39Q71.99 22.78 72.13 22.01L72.13 22.01L76.90 22.88Q76.63 24.40 75.91 25.59Q75.19 26.78 74.08 27.63Q72.97 28.49 71.52 28.93Q70.08 29.38 68.37 29.38ZM86.28 19.48L82.79 23.41L82.79 17.24L83.56 17.24L89.82 9.89L95.75 9.89L87.49 19.48L86.28 19.48ZM83.27 29L78.15 29L78.15 3.54L83.27 3.54L83.27 29ZM96.11 29L90.07 29L84.33 20.63L87.77 16.99L96.11 29ZM105.62 29.38L105.62 29.38Q102.56 29.38 100.30 28.44Q98.04 27.50 96.77 25.65Q95.51 23.80 95.44 21.10L95.44 21.10L100.51 21.10Q100.62 22.39 101.28 23.25Q101.95 24.11 103.06 24.54Q104.17 24.97 105.57 24.97L105.57 24.97Q106.97 24.97 108.01 24.57Q109.04 24.16 109.62 23.43Q110.20 22.69 110.20 21.72L110.20 21.72Q110.20 20.85 109.68 20.26Q109.16 19.67 108.19 19.24Q107.21 18.81 105.81 18.49L105.81 18.49L103.01 17.79Q99.78 17.00 97.95 15.32Q96.12 13.64 96.12 10.87L96.12 10.87Q96.12 8.56 97.36 6.83Q98.60 5.11 100.76 4.15Q102.92 3.19 105.69 3.19L105.69 3.19Q108.51 3.19 110.61 4.16Q112.72 5.13 113.90 6.84Q115.07 8.56 115.11 10.80L115.11 10.80L110.07 10.80Q109.93 9.26 108.76 8.42Q107.59 7.59 105.64 7.59L105.64 7.59Q104.32 7.59 103.38 7.96Q102.44 8.34 101.95 9.00Q101.45 9.67 101.45 10.53L101.45 10.53Q101.45 11.47 102.03 12.09Q102.60 12.71 103.53 13.10Q104.46 13.48 105.54 13.74L105.54 13.74L107.85 14.30Q109.45 14.66 110.84 15.28Q112.22 15.89 113.26 16.79Q114.31 17.69 114.88 18.92Q115.45 20.15 115.45 21.75L115.45 21.75Q115.45 24.06 114.29 25.78Q113.13 27.50 110.92 28.44Q108.72 29.38 105.62 29.38ZM125.45 29.38L125.45 29.38Q122.52 29.38 120.40 28.18Q118.29 26.98 117.15 24.78Q116.01 22.57 116.01 19.55L116.01 19.55Q116.01 16.59 117.14 14.37Q118.27 12.15 120.34 10.90Q122.40 9.65 125.19 9.65L125.19 9.65Q127.07 9.65 128.69 10.25Q130.32 10.85 131.55 12.06Q132.78 13.26 133.47 15.07Q134.16 16.88 134.16 19.34L134.16 19.34L134.16 20.78L118.11 20.78L118.11 17.57L131.65 17.57L129.26 18.42Q129.26 16.93 128.80 15.83Q128.35 14.73 127.45 14.12Q126.56 13.52 125.22 13.52L125.22 13.52Q123.91 13.52 122.98 14.13Q122.04 14.75 121.57 15.80Q121.09 16.85 121.09 18.20L121.09 18.20L121.09 20.47Q121.09 22.13 121.64 23.26Q122.20 24.39 123.20 24.95Q124.20 25.51 125.53 25.51L125.53 25.51Q126.44 25.51 127.17 25.26Q127.91 25.00 128.43 24.50Q128.95 23.99 129.22 23.26L129.22 23.26L133.87 24.13Q133.41 25.70 132.26 26.89Q131.12 28.08 129.40 28.73Q127.68 29.38 125.45 29.38ZM146.60 29L140.77 29L133.73 9.89L139.18 9.89L142.40 19.81Q142.98 21.67 143.41 23.57Q143.85 25.46 144.31 27.50L144.31 27.50L143.22 27.50Q143.66 25.46 144.09 23.57Q144.52 21.67 145.10 19.81L145.10 19.81L148.28 9.89L153.66 9.89L146.60 29ZM159.43 29.38L159.43 29.38Q157.62 29.38 156.18 28.74Q154.73 28.09 153.90 26.82Q153.08 25.55 153.08 23.65L153.08 23.65Q153.08 22.06 153.67 20.98Q154.26 19.91 155.27 19.26Q156.29 18.61 157.58 18.27Q158.87 17.93 160.29 17.79L160.29 17.79Q161.95 17.62 162.96 17.47Q163.98 17.33 164.45 17.01Q164.92 16.70 164.92 16.08L164.92 16.08L164.92 15.99Q164.92 15.17 164.58 14.61Q164.24 14.05 163.57 13.75Q162.90 13.45 161.93 13.45L161.93 13.45Q160.94 13.45 160.20 13.75Q159.47 14.05 159.01 14.54Q158.54 15.04 158.32 15.65L158.32 15.65L153.62 14.87Q154.12 13.21 155.26 12.05Q156.41 10.88 158.11 10.27Q159.81 9.65 161.93 9.65L161.93 9.65Q163.48 9.65 164.94 10.02Q166.39 10.39 167.54 11.16Q168.70 11.93 169.37 13.16Q170.05 14.39 170.05 16.13L170.05 16.13L170.05 29L165.19 29L165.19 26.35L165.02 26.35Q164.56 27.24 163.79 27.91Q163.02 28.59 161.94 28.98Q160.85 29.38 159.43 29.38ZM160.89 25.77L160.89 25.77Q162.10 25.77 163.01 25.29Q163.93 24.81 164.44 23.99Q164.95 23.17 164.95 22.16L164.95 22.16L164.95 20.10Q164.73 20.27 164.27 20.40Q163.81 20.54 163.24 20.64Q162.68 20.75 162.13 20.83Q161.59 20.92 161.16 20.97L161.16 20.97Q160.22 21.10 159.50 21.41Q158.78 21.72 158.39 22.22Q158.00 22.73 158.00 23.51L158.00 23.51Q158.00 24.25 158.37 24.75Q158.75 25.26 159.39 25.51Q160.03 25.77 160.89 25.77Z"/></g>
        
      </svg>
    